<svg viewBox="0 0 100 100" version="1.1" xmlns="http://www.w3.org/2000/svg" data-name="레이어 1" id="_레이어_1">
  <defs>
    <style>
      .cls-1, .cls-2, .cls-3 {
        fill: none;
      }

      .cls-1, .cls-4 {
        stroke-width: 0px;
      }

      .cls-2 {
        stroke-linecap: round;
        stroke-linejoin: round;
        stroke-width: 2px;
      }

      .cls-2, .cls-3 {
        stroke: #000;
      }

      .cls-4 {
        fill: #000;
      }

      .cls-3 {
        stroke-miterlimit: 10;
      }
    </style>
  </defs>
  <g>
    <line y2="39.4" x2="76" y1="64.6" x1="25.9" class="cls-2"></line>
    <circle r="1.5" cy="35.9" cx="41.5" class="cls-4"></circle>
    <circle r="1.5" cy="27.9" cx="36.5" class="cls-4"></circle>
    <circle r="1.5" cy="46.9" cx="40.5" class="cls-4"></circle>
    <circle r="2" cy="52.4" cx="30" class="cls-3"></circle>
    <circle r="2" cy="41.4" cx="52" class="cls-4"></circle>
    <circle r="3.5" cy="33.9" cx="63.5" class="cls-4"></circle>
    <circle r="2" cy="26.4" cx="52" class="cls-3"></circle>
    <circle r="3" cy="40.4" cx="29" class="cls-4"></circle>
    <path d="M49.6,62.2c-.8,2-1.8,4.7-2.5,6.8-1,2.8-.2,6.2,3,7,2.8.6,5.4-1,5.5-4,0-1.6-.5-3-1-4.6-.7-2-1.2-3.7-1.9-5.5-.6-1.6-1-2.6-1.5-2.5-.5,0-.9,1.2-1.4,2.8h0s0,0,0,0Z" class="cls-2"></path>
    <path d="M63.7,57.1c-.6,1.4-1.3,3.4-1.8,4.9-.8,2-.1,4.5,2.1,5,2,.4,3.9-.7,3.9-2.8,0-1.1-.3-2.1-.7-3.3-.5-1.4-.9-2.6-1.4-4-.4-1.2-.7-1.8-1.1-1.8-.3,0-.6.9-1,2h0s0,0,0,0Z" class="cls-2"></path>
    <path d="M50,18c17.6,0,32,14.4,32,32s-14.4,32-32,32-32-14.4-32-32,14.4-32,32-32M50,16c-18.8,0-34,15.2-34,34s15.2,34,34,34,34-15.2,34-34S68.8,16,50,16h0Z" class="cls-4"></path>
  </g>
  <line y2="72" x2="108" y1="71" x1="108" class="cls-1"></line>
</svg>